<svg xmlns="http://www.w3.org/2000/svg" xmlns:xlink="http://www.w3.org/1999/xlink" width="500" zoomAndPan="magnify" viewBox="0 0 375 374.999991" height="500" preserveAspectRatio="xMidYMid meet" version="1.0"><defs><g/><clipPath id="id1"><path d="M 3.515625 125.675781 L 370.886719 125.675781 L 370.886719 328.175781 L 3.515625 328.175781 Z M 3.515625 125.675781 " clip-rule="nonzero"/></clipPath></defs><g fill="#00c690" fill-opacity="1"><g transform="translate(77.343841, 209.374538)"><g><path d="M 18.71875 -12.667969 C 18.71875 -3.78125 14.75 -2.457031 5.671875 -2.457031 L 5.671875 0 L 52.757812 0 L 52.566406 -2.457031 C 43.679688 -2.457031 39.519531 -3.78125 39.519531 -12.667969 L 39.519531 -125.175781 C 39.519531 -134.066406 43.679688 -135.386719 52.757812 -135.386719 L 52.757812 -137.847656 L 5.671875 -137.847656 L 5.671875 -135.386719 C 14.75 -135.386719 18.71875 -134.066406 18.71875 -125.175781 Z M 18.71875 -12.667969 "/></g></g></g><g clip-path="url(#id1)"><path fill="#00c690" d="M 307.125 237.308594 C 309.367188 237.960938 311.671875 238.460938 314.023438 238.796875 C 316.339844 239.125 318.699219 239.296875 321.085938 239.296875 C 334.851562 239.296875 347.316406 233.707031 356.339844 224.675781 C 365.363281 215.640625 370.941406 203.160156 370.941406 189.375 C 370.941406 175.589844 365.363281 163.109375 356.339844 154.074219 C 347.316406 145.039062 334.851562 139.453125 321.085938 139.453125 C 313.433594 139.453125 306.179688 141.183594 299.691406 144.269531 C 292.957031 147.480469 287.054688 152.15625 282.394531 157.886719 C 268.289062 175.003906 256.796875 192.964844 245.3125 210.914062 C 221.652344 247.898438 198.015625 284.828125 151.828125 313.679688 C 147.609375 315.984375 143.203125 317.988281 138.636719 319.660156 C 128.0625 323.542969 116.636719 325.660156 104.710938 325.660156 C 77.480469 325.660156 52.828125 314.609375 34.984375 296.742188 C 17.140625 278.875 6.105469 254.191406 6.105469 226.929688 C 6.105469 199.664062 17.144531 174.980469 34.984375 157.117188 C 51.863281 140.214844 74.832031 129.417969 100.3125 128.296875 C 98.308594 129.75 97.003906 132.109375 97.003906 134.777344 C 97.003906 139.195312 100.578125 142.773438 104.988281 142.773438 C 109.398438 142.773438 112.972656 139.195312 112.972656 134.777344 C 112.972656 130.9375 110.261719 127.726562 106.652344 126.957031 L 106.671875 125.703125 L 104.714844 125.679688 C 76.792969 125.679688 51.511719 137.015625 33.210938 155.335938 C 14.910156 173.660156 3.589844 198.972656 3.589844 226.933594 C 3.589844 254.890625 14.910156 280.207031 33.210938 298.53125 C 51.511719 316.851562 76.789062 328.1875 104.714844 328.1875 C 116.9375 328.1875 128.65625 326.011719 139.511719 322.03125 C 150.757812 317.902344 161.070312 311.835938 170.039062 304.226562 C 205.929688 277.132812 226.667969 244.726562 247.433594 212.28125 C 258.886719 194.378906 270.347656 176.464844 284.339844 159.484375 L 283.375 158.6875 L 284.347656 159.484375 C 288.769531 154.042969 294.371094 149.601562 300.769531 146.554688 C 306.921875 143.625 313.8125 141.980469 321.089844 141.980469 C 334.164062 141.980469 346 147.289062 354.566406 155.867188 C 363.132812 164.445312 368.433594 176.296875 368.433594 189.386719 C 368.433594 202.476562 363.132812 214.328125 354.566406 222.90625 C 346 231.484375 334.164062 236.789062 321.089844 236.789062 C 318.796875 236.789062 316.554688 236.628906 314.375 236.320312 C 312.132812 236.003906 309.945312 235.527344 307.832031 234.910156 L 307.132812 237.320312 Z M 307.125 237.308594 " fill-opacity="1" fill-rule="nonzero"/></g><g fill="#00c690" fill-opacity="1"><g transform="translate(21.49768, 272.643556)"><g><path d="M 3.09375 0 L 3.09375 -14.503906 L 1.601562 -14.503906 L 1.601562 0 Z M 3.09375 0 "/></g></g></g><g fill="#00c690" fill-opacity="1"><g transform="translate(41.378123, 272.643556)"><g><path d="M 11.070312 -4.03125 C 11.070312 -5.054688 10.8125 -5.929688 10.324219 -6.613281 C 9.8125 -7.292969 9.128906 -7.765625 8.296875 -8 C 8.789062 -8.210938 9.214844 -8.597656 9.535156 -9.171875 C 9.683594 -9.429688 9.789062 -9.683594 9.875 -9.960938 C 9.960938 -10.238281 10.003906 -10.621094 10.003906 -11.113281 C 10.003906 -11.582031 9.875 -12.074219 9.664062 -12.542969 C 9.023438 -13.84375 7.636719 -14.503906 5.523438 -14.503906 L 1.601562 -14.503906 L 1.601562 0 L 6.035156 0 C 7.507812 0 8.679688 -0.320312 9.578125 -1.003906 C 10.023438 -1.34375 10.386719 -1.792969 10.664062 -2.347656 C 10.921875 -2.878906 11.070312 -3.433594 11.070312 -4.03125 Z M 8.511719 -10.878906 C 8.511719 -10.089844 8.277344 -9.511719 7.808594 -9.128906 C 7.335938 -8.746094 6.71875 -8.554688 5.949219 -8.554688 L 3.09375 -8.554688 L 3.09375 -13.074219 L 5.523438 -13.074219 C 7.507812 -13.074219 8.511719 -12.328125 8.511719 -10.878906 Z M 9.578125 -4.328125 C 9.578125 -3.457031 9.277344 -2.75 8.679688 -2.21875 C 8.105469 -1.683594 7.359375 -1.429688 6.464844 -1.429688 L 3.09375 -1.429688 L 3.09375 -7.058594 L 6.699219 -7.058594 C 7.445312 -7.058594 8.105469 -6.804688 8.679688 -6.292969 C 8.9375 -6.058594 9.152344 -5.78125 9.320312 -5.460938 C 9.492188 -5.121094 9.578125 -4.757812 9.578125 -4.328125 Z M 9.578125 -4.328125 "/></g></g></g><g fill="#00c690" fill-opacity="1"><g transform="translate(68.062273, 272.643556)"><g><path d="M 3.09375 -7.167969 L 3.09375 -13.074219 L 6.464844 -13.074219 C 7.335938 -13.074219 8.042969 -12.796875 8.574219 -12.242188 C 9.085938 -11.6875 9.363281 -11.007812 9.363281 -10.152344 C 9.363281 -9.300781 9.085938 -8.597656 8.53125 -8.019531 C 7.976562 -7.445312 7.292969 -7.167969 6.464844 -7.167969 Z M 10.855469 -10.132812 C 10.855469 -11.367188 10.386719 -12.433594 9.492188 -13.265625 C 8.617188 -14.078125 7.53125 -14.503906 6.25 -14.503906 L 1.601562 -14.503906 L 1.601562 0 L 3.09375 0 L 3.09375 -5.738281 L 4.820312 -5.738281 L 9.085938 0 L 11.089844 0 L 6.613281 -5.738281 C 7.742188 -5.800781 8.703125 -6.207031 9.492188 -6.953125 C 10.386719 -7.785156 10.855469 -8.851562 10.855469 -10.132812 Z M 10.855469 -10.132812 "/></g></g></g><g fill="#00c690" fill-opacity="1"><g transform="translate(94.853056, 272.643556)"><g><path d="M 3.945312 -5.332031 L 6.589844 -12.007812 L 9.214844 -5.332031 Z M 12.949219 0 L 6.589844 -15.507812 L 0.214844 0 L 1.835938 0 L 3.390625 -3.945312 L 9.769531 -3.945312 L 11.328125 0 Z M 12.949219 0 "/></g></g></g><g fill="#00c690" fill-opacity="1"><g transform="translate(123.200802, 272.643556)"><g><path d="M 3.09375 0 L 3.09375 -6.484375 L 9.683594 -6.484375 L 9.683594 0 L 11.175781 0 L 11.175781 -14.503906 L 9.683594 -14.503906 L 9.683594 -7.976562 L 3.09375 -7.976562 L 3.09375 -14.503906 L 1.601562 -14.503906 L 1.601562 0 Z M 3.09375 0 "/></g></g></g><g fill="#00c690" fill-opacity="1"><g transform="translate(151.164644, 272.643556)"><g><path d="M 3.09375 0 L 3.09375 -14.503906 L 1.601562 -14.503906 L 1.601562 0 Z M 3.09375 0 "/></g></g></g><g fill="#00c690" fill-opacity="1"><g transform="translate(171.04509, 272.643556)"><g><path d="M 14.972656 0 L 16.488281 0 L 13.117188 -15.464844 L 8.363281 -3.050781 L 3.605469 -15.464844 L 0.214844 0 L 1.75 0 L 3.988281 -10.324219 L 8.363281 0.851562 L 12.710938 -10.324219 Z M 14.972656 0 "/></g></g></g><g fill="#00c690" fill-opacity="1"><g transform="translate(202.933317, 272.643556)"><g/></g></g><g fill="#00c690" fill-opacity="1"><g transform="translate(223.880181, 272.643556)"><g><path d="M 3.945312 -5.332031 L 6.589844 -12.007812 L 9.214844 -5.332031 Z M 12.949219 0 L 6.589844 -15.507812 L 0.214844 0 L 1.835938 0 L 3.390625 -3.945312 L 9.769531 -3.945312 L 11.328125 0 Z M 12.949219 0 "/></g></g></g><g fill="#00c690" fill-opacity="1"><g transform="translate(252.227927, 272.643556)"><g><path d="M 3.09375 0 L 3.09375 -6.484375 L 9.683594 -6.484375 L 9.683594 0 L 11.175781 0 L 11.175781 -14.503906 L 9.683594 -14.503906 L 9.683594 -7.976562 L 3.09375 -7.976562 L 3.09375 -14.503906 L 1.601562 -14.503906 L 1.601562 0 Z M 3.09375 0 "/></g></g></g><g fill="#00c690" fill-opacity="1"><g transform="translate(280.191769, 272.643556)"><g><path d="M 14.972656 0 L 16.488281 0 L 13.117188 -15.464844 L 8.363281 -3.050781 L 3.605469 -15.464844 L 0.214844 0 L 1.75 0 L 3.988281 -10.324219 L 8.363281 0.851562 L 12.710938 -10.324219 Z M 14.972656 0 "/></g></g></g><g fill="#00c690" fill-opacity="1"><g transform="translate(312.079996, 272.643556)"><g><path d="M 10.21875 0 L 10.21875 -1.386719 L 3.09375 -1.386719 L 3.09375 -6.546875 L 10.003906 -6.546875 L 10.003906 -7.957031 L 3.09375 -7.957031 L 3.09375 -13.117188 L 10.21875 -13.117188 L 10.21875 -14.503906 L 1.601562 -14.503906 L 1.601562 0 Z M 10.21875 0 "/></g></g></g><g fill="#00c690" fill-opacity="1"><g transform="translate(339.084069, 272.643556)"><g><path d="M 12.863281 -7.253906 C 12.863281 -8.296875 12.648438 -9.257812 12.265625 -10.152344 C 11.878906 -11.050781 11.347656 -11.816406 10.6875 -12.457031 C 10.003906 -13.097656 9.214844 -13.585938 8.320312 -13.949219 C 7.402344 -14.3125 6.421875 -14.503906 5.398438 -14.503906 L 1.601562 -14.503906 L 1.601562 0 L 5.398438 0 C 6.421875 0 7.402344 -0.171875 8.320312 -0.535156 C 9.214844 -0.894531 10.003906 -1.40625 10.6875 -2.046875 C 11.347656 -2.6875 11.878906 -3.433594 12.265625 -4.328125 C 12.648438 -5.226562 12.863281 -6.1875 12.863281 -7.253906 Z M 11.410156 -7.253906 C 11.410156 -5.589844 10.8125 -4.203125 9.664062 -3.113281 C 8.511719 -2.027344 7.101562 -1.492188 5.4375 -1.492188 L 3.09375 -1.492188 L 3.09375 -13.011719 L 5.4375 -13.011719 C 7.101562 -13.011719 8.511719 -12.457031 9.664062 -11.390625 C 10.8125 -10.28125 11.410156 -8.894531 11.410156 -7.253906 Z M 11.410156 -7.253906 "/></g></g></g><g fill="#00c690" fill-opacity="1"><g transform="translate(178.58929, 226.49878)"><g><path d="M 32.660156 0 L 32.660156 -2.484375 C 24.640625 -2.484375 18.910156 -7.066406 22.347656 -15.28125 L 34.953125 -45.648438 L 89.960938 -45.648438 L 100.847656 -19.101562 C 104.667969 -9.933594 104.097656 -2.484375 94.164062 -2.484375 L 89.007812 -2.484375 L 89.007812 0 L 142.679688 0 L 142.679688 -2.484375 C 133.128906 -2.484375 127.207031 -6.683594 121.859375 -19.292969 L 71.625 -139.242188 L 38.199219 -139.242188 L 38.199219 -136.757812 C 45.839844 -136.757812 52.714844 -134.847656 55.773438 -127.207031 L 61.121094 -114.21875 L 19.480469 -14.515625 C 16.617188 -7.640625 9.167969 -2.484375 2.863281 -2.484375 L 2.863281 0 Z M 62.457031 -111.355469 L 88.816406 -48.132812 L 36.097656 -48.132812 Z M 62.457031 -111.355469 "/></g></g></g></svg>